<?xml version="1.0" encoding="UTF-8" standalone="no"?><!DOCTYPE svg PUBLIC "-//W3C//DTD SVG 1.1//EN" "http://www.w3.org/Graphics/SVG/1.1/DTD/svg11.dtd"><svg width="100%" height="100%" viewBox="0 0 101 101" version="1.1" xmlns="http://www.w3.org/2000/svg" xmlns:xlink="http://www.w3.org/1999/xlink" xml:space="preserve" xmlns:serif="http://www.serif.com/" style="fill-rule:evenodd;clip-rule:evenodd;stroke-linecap:round;stroke-linejoin:round;stroke-miterlimit:1.5;"><g id="favicon_light"><path d="M100.32,15.276l0,69.768c0,8.431 -6.845,15.276 -15.276,15.276l-69.768,0c-8.431,0 -15.276,-6.845 -15.276,-15.276l0,-69.768c0,-8.431 6.845,-15.276 15.276,-15.276l69.768,0c8.431,0 15.276,6.845 15.276,15.276Z" style="fill:#073642;"/><circle cx="16.32" cy="84" r="8.64" style="fill:#cb4b16;"/><path d="M14.16,57.84c14.835,0 26.88,12.69 26.88,28.32" style="fill:none;stroke:#cb4b16;stroke-width:12.96px;"/><path d="M14.16,35.52c27.287,0 49.44,22.691 49.44,50.64" style="fill:none;stroke:#cb4b16;stroke-width:12.96px;"/><path d="M14.16,14.16c39.738,0 72,32.262 72,72" style="fill:none;stroke:#cb4b16;stroke-width:12.96px;"/></g></svg>
